# File created by Blade
# Date/Time:  Tue Apr 07 21:33:03 2015
# Frame Rate: 120.000 fps
#------------------------------------------------------
:FULLY-SPECIFIED
:DEGREES
710
root 25.393248 31.755955 -13.660909 38.338638 -66.813733 -3.632058
Spine -6.832442 3.095579 -4.554658
Head -25.921442 -5.578141 8.381915
LeftShoulder -15.817016 46.335614 11.101384
LeftArm 49.043739 15.402333 -67.757077
LeftForeArm 16.100834 -0.000000 31.441620
LeftHand 11.789255 -0.000000 -3.118870
LeftHandThumb1 -26.253704 0.000000 33.147579
RightShoulder 0.837535 1.428280 -18.554955
RightArm 16.755978 -3.732594 91.637482
RightForeArm 2.433463 0.000000 39.848942
RightHand 15.847928 -0.000000 -13.975862
RightHandThumb1 -24.326973 -0.000000 -32.862282
LeftUpLeg -70.597238 -4.645375 1.962415
LeftLeg 51.081899 -0.000000 -0.000000
LeftFoot -8.868910 4.654316 -21.281210
LeftToeBase -13.880592 -0.000000 0.000000
RightUpLeg -15.541433 5.587162 3.319560
RightLeg 12.522277 -0.000000 -0.000000
RightFoot 0.831889 -11.319594 4.895911
RightToeBase -42.462016 -0.000000 0.000000
711
root 24.988428 31.807415 -13.478067 38.202433 -67.050090 -3.455966
Spine -6.798063 3.442141 -5.233063
Head -26.853270 -5.788719 9.142386
LeftShoulder -15.846302 46.529215 11.247567
LeftArm 48.905285 14.233496 -68.046061
LeftForeArm 16.270095 0.000000 31.495187
LeftHand 12.449617 0.000000 -2.836099
LeftHandThumb1 -26.253704 0.000000 33.147579
RightShoulder 0.970043 1.624064 -18.534297
RightArm 16.483208 -2.557857 92.378822
RightForeArm 2.964944 -0.000000 40.872321
RightHand 16.582168 0.000000 -15.734721
RightHandThumb1 -24.326973 -0.000000 -32.862282
LeftUpLeg -70.118193 -4.896238 2.504834
LeftLeg 47.448366 -0.000000 -0.000000
LeftFoot -8.773699 5.991992 -21.382102
LeftToeBase -14.465681 -0.000000 0.000000
RightUpLeg -13.835544 4.892455 3.335154
RightLeg 10.123805 -0.000000 -0.000000
RightFoot 2.731845 -11.120378 5.042589
RightToeBase -42.248988 -0.000000 0.000000
712
root 24.569318 31.839319 -13.299205 38.251851 -67.276446 -3.437040
Spine -6.914276 3.806691 -5.891298
Head -27.642067 -6.022343 9.946315
LeftShoulder -15.819323 46.625935 11.497321
LeftArm 48.668038 12.960065 -68.414975
LeftForeArm 16.134326 -0.000000 31.600216
LeftHand 12.676392 -0.000000 -2.237670
LeftHandThumb1 -26.253704 0.000000 33.147579
RightShoulder 1.097544 1.827661 -18.525640
RightArm 16.118251 -1.321047 93.127745
RightForeArm 3.510504 -0.000000 42.049973
RightHand 17.127245 -0.000000 -17.388819
RightHandThumb1 -24.326973 -0.000000 -32.862282
LeftUpLeg -69.624832 -5.085880 3.151761
LeftLeg 44.043428 -0.000000 -0.000000
LeftFoot -8.200785 7.698534 -21.738993
LeftToeBase -16.118767 -0.000000 0.000000
RightUpLeg -12.207245 4.110189 3.417394
RightLeg 7.899739 -0.000000 -0.000000
RightFoot 4.424779 -10.931685 5.709707
RightToeBase -41.487720 -0.000000 0.000000
713
root 24.131295 31.846423 -13.114341 38.315094 -67.474147 -3.503148
Spine -7.084836 4.206464 -6.506453
Head -28.271777 -6.315157 10.739835
LeftShoulder -15.775775 46.768895 11.718502
LeftArm 48.498942 11.494509 -68.787915
LeftForeArm 15.798264 0.000000 31.841112
LeftHand 13.306538 0.000000 -1.794541
LeftHandThumb1 -26.253704 0.000000 33.147579
RightShoulder 1.206559 1.937993 -18.505957
RightArm 15.727893 0.074485 93.843207
RightForeArm 4.140149 -0.000000 43.494597
RightHand 17.572126 0.000000 -19.217266
RightHandThumb1 -24.326973 -0.000000 -32.862282
LeftUpLeg -69.031282 -5.329849 3.917425
LeftLeg 41.061740 -0.000000 -0.000000
LeftFoot -7.252592 9.694273 -21.976391
LeftToeBase -17.460812 -0.000000 0.000000
RightUpLeg -10.581776 3.290057 3.518822
RightLeg 6.035593 -0.000000 -0.000000
RightFoot 5.783936 -10.812762 7.102997
RightToeBase -39.427807 -0.000000 0.000000
714
root 23.678084 31.826376 -12.924539 38.360069 -67.639850 -3.625291
Spine -7.297446 4.581279 -7.082934
Head -28.726934 -6.604082 11.528530
LeftShoulder -15.713814 46.783833 11.944837
LeftArm 48.227780 9.843606 -69.220729
LeftForeArm 14.972874 -0.000000 32.240684
LeftHand 13.081455 -0.000000 -0.527426
LeftHandThumb1 -26.253704 0.000000 33.147579
RightShoulder 1.354331 2.003699 -18.459642
RightArm 15.300339 1.587316 94.486848
RightForeArm 4.927022 0.000000 45.183584
RightHand 18.127250 -0.000000 -21.068532
RightHandThumb1 -24.326973 -0.000000 -32.862282
LeftUpLeg -68.381013 -5.587123 4.652365
LeftLeg 38.742703 -0.000000 -0.000000
LeftFoot -6.008388 11.415968 -21.477438
LeftToeBase -17.742007 -0.000000 0.000000
RightUpLeg -9.021940 2.442755 3.607143
RightLeg 4.724557 -0.000000 -0.000000
RightFoot 7.077743 -10.673690 8.838043
RightToeBase -38.611617 -0.000000 0.000000
715
root 23.204631 31.774889 -12.722446 38.312032 -67.888575 -3.709443
Spine -7.605863 5.025396 -7.743353
Head -28.978847 -6.913364 12.342576
LeftShoulder -15.681494 46.752678 12.124649
LeftArm 47.909874 8.014184 -69.622344
LeftForeArm 14.132108 -0.000000 32.971716
LeftHand 13.476866 -0.000000 0.195125
LeftHandThumb1 -26.253704 0.000000 33.147579
RightShoulder 1.489692 2.037249 -18.362888
RightArm 14.749027 3.219880 95.031174
RightForeArm 5.999779 -0.000000 47.250775
RightHand 18.909499 0.000000 -22.518608
RightHandThumb1 -24.326973 -0.000000 -32.862282
LeftUpLeg -67.642971 -5.772122 5.192993
LeftLeg 37.028265 -0.000000 -0.000000
LeftFoot -4.789947 12.591256 -20.951657
LeftToeBase -16.073819 -0.000000 0.000000
RightUpLeg -7.590791 1.651630 3.561590
RightLeg 4.166578 -0.000000 -0.000000
RightFoot 7.890625 -10.377307 12.001784
RightToeBase -37.980713 -0.000000 0.000000
716
root 22.720332 31.691859 -12.516036 38.394531 -68.083843 -4.004238
Spine -7.980096 5.491680 -8.273633
Head -29.027526 -7.275053 13.103651
LeftShoulder -15.674762 46.674643 12.222612
LeftArm 47.528432 5.989502 -70.016594
LeftForeArm 13.047630 0.000000 34.331102
LeftHand 13.877173 -0.000000 0.228924
LeftHandThumb1 -26.253704 0.000000 33.147579
RightShoulder 1.585319 1.990302 -18.238175
RightArm 14.190537 4.896758 95.408606
RightForeArm 7.070321 -0.000000 49.738501
RightHand 19.605808 0.000000 -23.699035
RightHandThumb1 -24.326973 -0.000000 -32.862282
LeftUpLeg -66.860484 -5.922986 5.737689
LeftLeg 35.938931 -0.000000 -0.000000
LeftFoot -3.973195 13.324188 -21.577105
LeftToeBase -13.370875 -0.000000 0.000000
RightUpLeg -6.380479 0.858379 3.542035
RightLeg 4.692872 -0.000000 -0.000000
RightFoot 8.249800 -10.188689 15.311612
RightToeBase -36.294495 -0.000000 0.000000
717
root 22.222414 31.573801 -12.305346 38.441713 -68.316144 -4.312857
Spine -8.452396 5.993022 -8.843490
Head -28.845545 -7.701657 13.883963
LeftShoulder -15.641285 46.482247 12.348579
LeftArm 46.972861 3.839074 -70.350196
LeftForeArm 11.980314 -0.000000 36.242846
LeftHand 14.685845 -0.000000 0.731101
LeftHandThumb1 -26.253704 0.000000 33.147579
RightShoulder 1.587049 1.854824 -18.042063
RightArm 13.635132 6.536293 95.614656
RightForeArm 7.973998 -0.000000 52.750505
RightHand 20.222952 -0.000000 -25.137936
RightHandThumb1 -24.326973 -0.000000 -32.862282
LeftUpLeg -65.999027 -5.962658 6.034223
LeftLeg 35.441644 -0.000000 -0.000000
LeftFoot -3.184564 13.862073 -22.155628
LeftToeBase -13.883587 -0.000000 0.000000
RightUpLeg -5.429839 0.143086 3.432141
RightLeg 6.473138 -0.000000 -0.000000
RightFoot 8.157746 -10.230876 18.302597
RightToeBase -34.029351 -0.000000 0.000000
718
root 21.717480 31.422330 -12.080489 38.489844 -68.607441 -4.662244
Spine -9.018794 6.475753 -9.386376
Head -28.452042 -8.109856 14.587795
LeftShoulder -15.797173 46.274072 12.254368
LeftArm 46.328795 1.564556 -70.558315
LeftForeArm 11.131853 -0.000000 39.179713
LeftHand 15.031204 -0.000000 1.660466
LeftHandThumb1 -26.253704 0.000000 33.147579
RightShoulder 1.497115 1.667108 -17.787016
RightArm 13.119941 8.156633 95.616031
RightForeArm 8.164577 0.000000 56.353000
RightHand 20.553007 -0.000000 -26.207060
RightHandThumb1 -24.326973 -0.000000 -32.862282
LeftUpLeg -65.043473 -5.904342 6.051239
LeftLeg 35.502943 -0.000000 -0.000000
LeftFoot -2.296795 14.154232 -21.999185
LeftToeBase -15.452036 -0.000000 0.000000
RightUpLeg -4.741652 -0.368177 3.214509
RightLeg 9.460741 -0.000000 -0.000000
RightFoot 8.219969 -10.377711 20.669218
RightToeBase -28.580616 -0.000000 0.000000
